<svg width="15" height="11" viewBox="0 0 15 11" fill="none" xmlns="http://www.w3.org/2000/svg">
<path d="M1.596 4.252C2.016 4.252 2.304 3.976 2.304 3.52C2.304 3.076 1.968 2.836 1.596 2.836C1.38 2.836 1.248 2.92 1.08 3.076L1.644 3.76L1.476 2.872C1.476 2.104 1.812 1.636 2.496 1.192L2.184 0.663999C1.248 1.204 0.756 1.972 0.756 3.04C0.756 3.82 1.056 4.252 1.596 4.252ZM5.36784 10.276L6.49584 10.132C7.51584 6.532 9.45984 3.472 11.5958 1.504L10.8758 0.831999C8.76384 2.896 6.85584 6.184 5.90784 9.376H5.85984C5.42784 8.176 4.81584 6.928 4.08384 5.812L3.32784 6.328C4.17984 7.528 4.82784 8.8 5.36784 10.276ZM12.6713 4.228C13.6073 3.676 14.0993 2.908 14.0993 1.84C14.0993 1.072 13.7873 0.64 13.2593 0.64C12.8393 0.64 12.5513 0.916 12.5513 1.372C12.5513 1.804 12.8873 2.044 13.2593 2.044C13.4633 2.044 13.6073 1.972 13.7753 1.816L13.2113 1.132L13.3793 2.008C13.3793 2.8 13.0433 3.256 12.3593 3.712L12.6713 4.228Z" fill="#A7A7A7"/>
</svg>
