<svg width="118" height="25" viewBox="0 0 118 25" fill="none" xmlns="http://www.w3.org/2000/svg">
<path d="M9.04757 7.26351C9.32009 8.10811 9.64711 8.8964 10.1921 9.74099C10.6827 10.473 11.3367 11.3176 12.3178 10.9234C11.6637 10.0788 11.1732 9.12162 10.8462 8.10811C10.4647 7.03829 10.3012 5.85586 10.3557 4.72973C11.0642 5.68694 11.5547 6.70045 11.8818 7.77027C12.2088 8.78378 12.3178 9.7973 12.3178 10.8671C13.3533 10.5293 13.3533 9.45946 13.2988 8.55856C13.2443 7.54504 13.0263 6.70045 12.7538 5.91216C12.4813 5.06757 12.0998 4.22297 11.6092 3.43468C11.1187 2.59009 10.5192 1.85811 9.86513 1.12613C9.4836 0.731982 9.15658 0.337838 8.77506 0C8.66605 0.506757 8.61155 1.06982 8.55704 1.63288C8.44804 2.59009 8.44804 3.6036 8.55704 4.56081C8.55704 5.51802 8.77506 6.41892 9.04757 7.26351ZM16.1875 9.29054C17.0596 8.61486 18.0951 8.10811 19.1307 7.77027C18.4767 8.72748 17.7136 9.57207 16.7871 10.2477C15.9695 10.8671 15.043 11.3176 14.0619 11.6554C14.6614 12.5563 15.6425 12.2748 16.46 11.9369C17.3866 11.5428 18.0406 11.0923 18.7492 10.5293C19.4032 9.96622 20.1118 9.34685 20.7113 8.61486C21.3109 7.88288 21.8559 7.03829 22.2919 6.19369C22.5644 5.74324 22.7824 5.23649 23.0005 4.72973C22.4554 4.78604 21.9649 4.89865 21.4744 5.01126C20.5478 5.23649 19.6212 5.51802 18.7492 5.91216C17.8771 6.30631 17.1141 6.75676 16.4055 7.26351C15.697 7.77027 15.0975 8.33333 14.4979 9.12162C13.9529 9.8536 13.4079 10.7545 14.0619 11.5991C14.6614 10.6982 15.37 9.90991 16.1875 9.29054ZM22.3464 18.6937C21.8559 17.8491 21.3109 17.0045 20.7113 16.3288C20.1118 15.5968 19.4032 14.9775 18.7492 14.4707C18.0406 13.964 17.3866 13.5135 16.4055 13.1757C15.588 12.8378 14.6069 12.6126 14.0074 13.5135C14.9885 13.8514 15.915 14.3018 16.7871 14.8649C17.7136 15.5405 18.4767 16.3288 19.1307 17.286C18.0406 16.9482 17.0051 16.4414 16.133 15.7658C15.3155 15.1464 14.6069 14.3581 14.0074 13.5135C13.3533 14.4144 13.9529 15.259 14.4979 15.991C15.152 16.7793 15.7515 17.286 16.46 17.7928C17.1686 18.2995 17.9861 18.75 18.8037 19.0878C19.6758 19.4257 20.6023 19.7072 21.5289 19.8761C22.0194 19.9887 22.5644 20.045 23.1095 20.1577C22.8915 19.6509 22.6189 19.2004 22.3464 18.6937ZM12.2088 14.0203C12.2088 15.0901 12.0998 16.1599 11.7727 17.1734C11.4457 18.2432 10.9552 19.3131 10.2467 20.214C10.2467 19.0315 10.4102 17.9054 10.7372 16.8356C11.1187 15.7658 11.6092 14.8649 12.2088 14.0203C11.2277 13.6824 10.5737 14.527 10.0831 15.259C9.53811 16.1599 9.26559 16.8919 8.99307 17.7365C8.77506 18.5811 8.55704 19.5383 8.50254 20.4392C8.44804 21.3964 8.50254 22.4099 8.61155 23.3671C8.66605 23.9302 8.77506 24.4369 8.82956 25C9.21109 24.6059 9.53811 24.2117 9.91963 23.8176C10.5737 23.0856 11.1187 22.2973 11.6092 21.4527C12.0998 20.6081 12.4268 19.7635 12.6993 18.9189C12.9718 18.0743 13.1353 17.286 13.1898 16.2162C13.2988 15.3716 13.2443 14.3018 12.2088 14.0203ZM11.1732 12.4437C10.1921 12.7815 9.15658 13.0068 8.17552 13.0068C7.08545 13.0068 5.94088 12.8378 4.90531 12.4437C5.99538 12.0495 7.08545 11.8806 8.17552 11.8806C9.21109 11.8806 10.1921 12.1059 11.1732 12.4437C11.1732 11.3176 10.1921 10.9797 9.3746 10.7545C8.39353 10.5293 7.57598 10.473 6.75843 10.473C5.88637 10.473 5.01432 10.6419 4.08776 10.8671C3.1612 11.0923 2.28915 11.4865 1.41709 11.8806C0.926559 12.1059 0.490531 12.3311 0 12.6126C0.490531 12.8378 0.926559 13.1194 1.41709 13.2883C2.28915 13.6824 3.2157 14.0203 4.14226 14.2455C5.06882 14.4707 5.94088 14.527 6.81293 14.527C7.68499 14.527 8.50254 14.4707 9.4291 14.1892C10.2467 13.9077 11.2277 13.5135 11.1732 12.4437ZM12.5358 11.8806C12.2088 11.9932 12.0453 12.3311 12.1543 12.6689C12.2633 13.0068 12.5903 13.1757 12.9173 13.0631C13.2443 12.9504 13.4079 12.6126 13.2988 12.2748C13.2443 11.9369 12.9173 11.768 12.5358 11.8806ZM14.0074 13.4572C13.9529 13.4572 13.9529 13.4572 14.0074 13.4572C13.9529 13.4572 13.9529 13.4572 14.0074 13.4572C13.9529 13.4572 14.0074 13.4572 14.0074 13.4572Z" fill="#A3A3A3"/>
<path d="M34.7188 15.3153H34.5553L34.4463 15.4842C34.1192 15.9347 33.6832 16.2725 33.1382 16.4977C32.5931 16.7793 31.9936 16.8919 31.3396 16.8919C30.7945 16.8919 30.2495 16.7793 29.759 16.554C29.2139 16.3288 28.7234 15.991 28.3419 15.5968C27.9603 15.2027 27.6878 14.7522 27.4698 14.1892C27.2518 13.6261 27.1973 13.063 27.1973 12.4437C27.1973 11.8806 27.3063 11.3176 27.5243 10.8108C27.7423 10.2477 28.0693 9.74097 28.4509 9.34683C28.8324 8.95269 29.2684 8.61485 29.8135 8.38962C30.304 8.1644 30.849 8.05178 31.3941 8.05178C32.0481 8.05178 32.6476 8.1644 33.2472 8.44593C33.7922 8.72746 34.2827 9.0653 34.6098 9.57206L34.7188 9.74097H34.8823H36.5719H37.1169L36.8989 9.17791C36.4084 8.10809 35.6998 7.2635 34.7188 6.64413C33.7377 6.02476 32.5931 5.74323 31.3396 5.74323C30.522 5.74323 29.7044 5.91214 28.9414 6.19368C28.2329 6.53151 27.5243 6.98196 26.9248 7.60133C26.2707 8.27701 25.7802 9.00899 25.4532 9.79728C25.1262 10.5856 24.9626 11.4865 24.9626 12.3874C24.9626 13.2883 25.1262 14.0766 25.3987 14.8648C25.6712 15.6531 26.1072 16.3288 26.6523 16.9482C27.3063 17.6802 28.0148 18.2432 28.7779 18.5811C29.5409 18.9189 30.413 19.1441 31.3396 19.1441C32.5931 19.1441 33.6832 18.8626 34.6098 18.2995C35.5363 17.7365 36.2994 16.9482 36.7899 15.9347L37.0624 15.3716H36.5174H34.7188V15.3153Z" fill="#A3A3A3"/>
<path d="M49.6527 9.79731C49.3257 9.00902 48.8351 8.27704 48.1811 7.65767C47.527 7.0383 46.873 6.53154 46.11 6.25001C45.3469 5.91217 44.5294 5.79956 43.6573 5.79956C42.7852 5.79956 41.9677 5.96848 41.2591 6.25001C40.5506 6.58785 39.8421 7.0383 39.2425 7.65767C38.5885 8.27704 38.0979 9.00902 37.7709 9.85361C37.4439 10.6419 37.2804 11.5428 37.2804 12.4437C37.2804 13.2883 37.4439 14.1329 37.7164 14.9212C37.9889 15.6532 38.425 16.3851 38.9155 17.0045C39.5695 17.7365 40.2781 18.2996 41.0411 18.6374C41.8042 18.9752 42.7307 19.2005 43.6573 19.2005C44.5839 19.2005 45.4559 19.0315 46.2735 18.6937C47.091 18.3559 47.7996 17.7928 48.4536 17.1171C48.9986 16.4978 49.4347 15.8221 49.7072 15.0338C49.9797 14.3018 50.1432 13.4009 50.1432 12.5C50.1432 11.4302 49.9797 10.5856 49.6527 9.79731ZM43.6573 8.05181C44.2568 8.05181 44.8564 8.16442 45.3469 8.38965C45.8374 8.61487 46.328 9.00902 46.764 9.45947C47.1455 9.85361 47.418 10.3041 47.6361 10.8108C47.8541 11.3176 47.9086 11.8243 47.9086 12.3311C47.9086 13.6261 47.527 14.6396 46.655 15.5405C45.8374 16.4414 44.8019 16.8356 43.6028 16.8356C43.0578 16.8356 42.5127 16.723 41.9677 16.4978C41.4227 16.2725 40.9321 15.9347 40.5506 15.5405C40.1691 15.1464 39.8966 14.696 39.6785 14.1329C39.4605 13.5698 39.406 13.0068 39.406 12.3874C39.406 11.8243 39.515 11.2613 39.7331 10.6982C39.9511 10.1351 40.2781 9.62839 40.6596 9.23424C41.0411 8.8401 41.4772 8.55857 42.0222 8.33334C42.5672 8.10812 43.1123 8.05181 43.6573 8.05181Z" fill="#A3A3A3"/>
<path d="M56.0841 11.2049L55.2121 10.9797C54.7215 10.8671 54.34 10.7545 54.122 10.6982C53.8495 10.5856 53.577 10.4166 53.4135 10.304C53.3045 10.1914 53.25 10.1351 53.1955 9.9662C53.1409 9.85358 53.1409 9.68466 53.1409 9.51574C53.1409 9.06529 53.3045 8.67115 53.577 8.38962C53.904 8.10809 54.2855 7.93917 54.7761 7.93917C55.2121 7.93917 55.5936 8.05178 55.8661 8.33331C56.1386 8.61484 56.3021 8.89638 56.3567 9.29052L56.4112 9.62836H56.7927H58.2098H58.6458V9.23421C58.5913 8.16439 58.2098 7.3198 57.5557 6.75674C56.9017 6.13737 55.9751 5.85583 54.8851 5.85583C53.686 5.85583 52.7049 6.19367 51.9964 6.92565C51.2878 7.60133 50.9063 8.55854 50.9063 9.68466C50.9063 10.0788 50.9608 10.4166 51.0698 10.8108C51.1788 11.1486 51.3968 11.4865 51.6694 11.768C51.9964 12.1621 52.4869 12.4437 52.9774 12.7252C53.4135 12.9504 53.904 13.1193 54.5035 13.2883C55.4846 13.5698 55.9206 13.795 56.1386 13.9639C56.4657 14.2455 56.6837 14.6396 56.6837 15.259C56.6837 15.8221 56.5202 16.2162 56.1386 16.554C55.7571 16.9482 55.2666 17.1171 54.667 17.1171C54.122 17.1171 53.6315 16.9482 53.3045 16.6103C52.9229 16.2725 52.7594 15.8784 52.7594 15.3716V15.0338H52.3779H51.0153H50.6338V15.2027C50.6338 16.3851 51.0153 17.286 51.7784 18.018C52.5414 18.75 53.577 19.0878 54.7761 19.0878C56.0841 19.0878 57.1197 18.6937 57.8827 17.9617C58.6458 17.1734 59.0818 16.1599 59.0818 14.9211C59.0818 14.0202 58.8093 13.232 58.3188 12.6126C57.7192 11.9932 57.0107 11.5428 56.0841 11.2049Z" fill="#A3A3A3"/>
<path d="M117.673 18.1869L112.822 6.53153L112.713 6.25H112.495H110.915H110.642L110.533 6.53153L105.628 18.1869L105.301 18.9189H105.955H107.535H107.753L107.862 18.6374L109.225 15.4842H114.021L115.329 18.6374L115.438 18.9189H115.656H117.292H117.946L117.673 18.1869ZM111.678 9.45946L113.095 13.0631H110.261L111.678 9.45946Z" fill="#A3A3A3"/>
<path d="M71.9447 6.13739H69.7645H69.4375L69.3285 6.36262L66.1673 15.2027L63.0061 6.36262L62.8971 6.13739H62.5701H60.3354H59.8994V6.53153V18.5811V18.9752H60.3354H61.6435H62.0796V18.5811V9.7973L65.2408 18.6937L65.3498 18.9752H65.6768H66.6033H66.9304L67.0394 18.6937L70.2551 9.68469V18.5811V18.9752H70.6911H71.9447H72.3807V18.5811V6.53153V6.13739H71.9447Z" fill="#A3A3A3"/>
<path d="M90.8574 15.3153H90.6939L90.5848 15.4842C90.2578 15.9347 89.8218 16.2725 89.2768 16.4977C88.7317 16.7793 88.1322 16.8919 87.4782 16.8919C86.9331 16.8919 86.3881 16.7793 85.8976 16.554C85.3525 16.3288 84.862 15.991 84.4805 15.5968C84.0989 15.2027 83.8264 14.7522 83.6084 14.1892C83.3904 13.6261 83.3359 13.063 83.3359 12.4437C83.3359 11.8806 83.4449 11.3176 83.6629 10.8108C83.8809 10.2477 84.2079 9.74097 84.5895 9.34683C84.971 8.95269 85.407 8.61485 85.9521 8.38962C86.4426 8.1644 86.9876 8.05178 87.5327 8.05178C88.1867 8.05178 88.7862 8.1644 89.3858 8.44593C89.9308 8.72746 90.4213 9.0653 90.7484 9.57206L90.8574 9.74097H91.0209H92.7105H93.2555L93.0375 9.17791C92.547 8.10809 91.8384 7.2635 90.8574 6.64413C89.8763 6.02476 88.7317 5.74323 87.4782 5.74323C86.6606 5.74323 85.8431 5.91214 85.08 6.19368C84.3715 6.53151 83.6629 6.98196 83.0634 7.60133C82.4093 8.27701 81.9188 9.00899 81.5918 9.79728C81.3738 10.3603 81.2103 10.9234 81.1558 11.5428H80.9377H75.6509V8.2207H80.3382H80.6652V7.88287V6.47521V6.13737H80.3382H73.8523H73.5253V6.47521V18.6374V18.9752H73.8523H80.3382H80.6652V18.6374V17.2297V16.8919H80.3382H75.6509V13.5698H80.9377H81.1558C81.2103 14.0203 81.3193 14.4707 81.4828 14.8648C81.7553 15.6531 82.1913 16.3288 82.7364 16.9482C83.3904 17.6802 84.0989 18.2432 84.862 18.5811C85.625 18.9189 86.4971 19.1441 87.4236 19.1441C88.6772 19.1441 89.7673 18.8626 90.6939 18.2995C91.6204 17.7365 92.3835 16.9482 92.874 15.9347L93.1465 15.3716H92.547H90.8574V15.3153Z" fill="#A3A3A3"/>
<path d="M103.393 15.3153H103.23L103.121 15.4842C102.794 15.9347 102.358 16.2725 101.812 16.4977C101.267 16.7793 100.668 16.8919 100.014 16.8919C99.4688 16.8919 98.9238 16.7793 98.4333 16.554C97.8882 16.3288 97.3977 15.991 97.0162 15.5968C96.6346 15.2027 96.3621 14.7522 96.1441 14.1892C95.9261 13.6261 95.8716 13.063 95.8716 12.4437C95.8716 11.8806 95.9806 11.3176 96.1986 10.8108C96.4166 10.2477 96.7437 9.74097 97.1252 9.34683C97.5067 8.95269 97.9427 8.61485 98.4878 8.38962C98.9783 8.1644 99.5233 8.05178 100.068 8.05178C100.722 8.05178 101.322 8.1644 101.921 8.44593C102.467 8.72746 102.957 9.0653 103.284 9.57206L103.393 9.74097H103.557H105.246H105.791L105.573 9.17791C105.083 8.10809 104.374 7.2635 103.393 6.64413C102.412 6.02476 101.267 5.74323 100.014 5.74323C99.1963 5.74323 98.3788 5.91214 97.6157 6.19368C96.9072 6.53151 96.1986 6.98196 95.5991 7.60133C94.945 8.27701 94.4545 9.00899 94.1275 9.79728C93.8005 10.5856 93.637 11.4865 93.637 12.3874C93.637 13.2883 93.8005 14.0766 94.073 14.8648C94.3455 15.6531 94.7815 16.3288 95.3266 16.9482C95.9806 17.6802 96.6892 18.2432 97.4522 18.5811C98.2153 18.9189 99.0873 19.1441 100.014 19.1441C101.267 19.1441 102.358 18.8626 103.284 18.2995C104.211 17.7365 104.974 16.9482 105.464 15.9347L105.737 15.3716H105.192H103.393V15.3153Z" fill="#A3A3A3"/>
</svg>
