<svg width="170" height="34" viewBox="0 0 170 34" fill="none" xmlns="http://www.w3.org/2000/svg">
<path d="M17.7158 14.8437C16.2738 15.3451 15.3468 14.2419 14.6258 13.2389C13.8533 12.0354 13.3898 11.0324 13.0293 9.87906C12.6688 8.72566 12.3598 7.47198 12.2568 6.21829C12.1538 4.91445 12.1538 3.56047 12.3083 2.20649C12.3598 1.45428 12.4113 0.702065 12.5658 0C13.1323 0.501475 13.6473 1.00295 14.1623 1.55457C15.0893 2.55752 15.9648 3.56047 16.6858 4.71386C17.4068 5.81711 17.9218 6.9705 18.3853 8.12389C18.7973 9.27729 19.1063 10.3304 19.2093 11.7345C19.2608 12.9381 19.2093 14.3923 17.7158 14.8437Z" fill="#68A844"/>
<path d="M20.2392 15.7462C19.2607 14.5928 20.0847 13.3392 20.8572 12.3864C21.7327 11.2831 22.6082 10.5309 23.6382 9.82883C24.6167 9.12676 25.7497 8.47485 26.9857 7.97337C28.2217 7.4719 29.5607 7.07072 30.8996 6.76983C31.6206 6.61939 32.3931 6.46895 33.1141 6.36865C32.8051 7.02057 32.4446 7.67249 32.0841 8.3244C31.4146 9.4778 30.6421 10.6312 29.8182 11.6341C28.9427 12.6371 28.0157 13.4896 27.0372 14.2418C26.0587 14.994 25.0802 15.5958 23.7412 16.0973C22.5567 16.5486 21.1147 16.9498 20.2392 15.7462Z" fill="#68A844"/>
<path d="M20.1362 18.3038C20.9602 17.0501 22.4537 17.4012 23.5867 17.8525C24.9257 18.354 25.9557 18.9056 26.9342 19.6578C27.9127 20.3599 28.9426 21.2124 29.8181 22.1652C30.6936 23.1681 31.5176 24.2714 32.1871 25.4248C32.5991 26.0767 32.9596 26.6785 33.2686 27.3805C32.4961 27.2802 31.7751 27.1799 31.0026 27.0295C29.6636 26.7788 28.3247 26.4277 27.0372 25.9263C25.8012 25.4248 24.6682 24.823 23.6382 24.1209C22.6082 23.469 21.7327 22.7168 20.8057 21.6637C20.0332 20.7109 19.2092 19.5074 20.1362 18.3038Z" fill="#68A844"/>
<path d="M17.6128 19.0059C19.1063 19.4071 19.2093 20.8613 19.1578 22.0649C19.1063 23.469 18.8488 24.5723 18.4368 25.7257C18.0248 26.879 17.5098 28.0826 16.8403 29.1858C16.1708 30.3392 15.2953 31.3923 14.4198 32.3953C13.9048 32.9469 13.3898 33.4985 12.8748 34C12.7203 33.2979 12.6173 32.5457 12.5143 31.7935C12.3598 30.4395 12.2568 29.1357 12.3598 27.7817C12.4628 26.4779 12.7203 25.2242 13.0293 24.0708C13.3898 22.9174 13.8018 21.8643 14.5743 20.6608C15.2438 19.6578 16.1193 18.5546 17.6128 19.0059Z" fill="#68A844"/>
<path d="M16.1194 16.8996C16.1709 18.4041 14.7804 18.9055 13.5959 19.2566C12.2054 19.6577 11.0724 19.758 9.78491 19.7079C8.54892 19.7079 7.26144 19.6076 5.92245 19.3067C4.63496 19.0058 3.34747 18.5545 2.05998 18.053C1.33899 17.7521 0.669494 17.4512 0 17.1002C0.669494 16.7492 1.33899 16.3981 2.00848 16.0973C3.24447 15.5456 4.53196 15.0442 5.87095 14.7433C7.15844 14.4424 8.44592 14.292 9.68191 14.2418C10.9179 14.1917 12.1024 14.292 13.4929 14.5928C14.7289 14.8937 16.1194 15.3952 16.1194 16.8996Z" fill="#68A844"/>
<path d="M18.6429 17.8024C19.1579 17.6519 19.3639 17.2006 19.2094 16.6991C19.0549 16.1976 18.5914 15.9971 18.0764 16.1475C17.5614 16.2979 17.3554 16.7493 17.5099 17.2507C17.6644 17.7021 18.1279 17.9528 18.6429 17.8024Z" fill="#68A844"/>
<path d="M17.7158 14.8437C17.7158 13.3894 17.5613 11.9853 17.0978 10.5812C16.6343 9.07676 15.8618 7.72278 14.8833 6.41895C14.8833 7.97352 15.0893 9.52809 15.6043 11.0325C16.1193 12.3865 16.8403 13.6903 17.7158 14.8437Z" fill="#A1C07A"/>
<path d="M20.2393 15.7463C21.6812 15.3452 23.0202 14.6932 24.2047 13.8909C25.4922 12.9882 26.6252 11.8348 27.5522 10.531C26.0072 10.9823 24.5652 11.6844 23.2777 12.6372C22.1447 13.4897 21.1148 14.5428 20.2393 15.7463Z" fill="#A1C07A"/>
<path d="M20.1362 18.304C21.0117 19.5075 22.0417 20.5104 23.1747 21.363C24.4622 22.2656 25.9042 22.9677 27.5007 23.4691C26.5737 22.1653 25.4407 21.0621 24.1532 20.1594C22.9172 19.3571 21.5782 18.7553 20.1362 18.304Z" fill="#A1C07A"/>
<path d="M17.6128 19.0059C16.7373 20.1593 16.0163 21.4129 15.5528 22.7669C15.0378 24.2212 14.8318 25.8259 14.8318 27.3805C15.8103 26.1268 16.5313 24.7227 16.9948 23.2684C17.4068 21.9144 17.6128 20.4601 17.6128 19.0059Z" fill="#A1C07A"/>
<path d="M16.1193 16.8997C14.7289 16.4483 13.2354 16.1475 11.7934 16.1475C10.1969 16.1475 8.60041 16.3982 7.05542 16.8997C8.60041 17.4011 10.1969 17.6519 11.7934 17.6519C13.2354 17.6519 14.6774 17.351 16.1193 16.8997Z" fill="#A1C07A"/>
<path d="M50.0576 20.8112H49.8002L49.6457 21.0118C49.1822 21.6136 48.5642 22.0649 47.7917 22.416C47.0192 22.767 46.1437 22.9676 45.2167 22.9676C44.4442 22.9676 43.6717 22.8171 42.8992 22.4661C42.1267 22.1652 41.4572 21.7139 40.8907 21.1623C40.3242 20.6608 39.9122 20.0089 39.6032 19.2567C39.3457 18.5045 39.1912 17.7021 39.1912 16.8997C39.1912 16.1475 39.3457 15.3953 39.6547 14.6431C39.9637 13.8909 40.4272 13.239 40.9937 12.6874C41.5602 12.1357 42.1782 11.6844 42.8992 11.4337C43.6202 11.1328 44.3927 10.9823 45.1652 10.9823C46.0922 10.9823 47.0192 11.1829 47.7917 11.534C48.5642 11.885 49.2337 12.3865 49.8002 13.0885L49.9547 13.2891H50.2121H52.6841H53.5081L53.1476 12.5369C52.4781 11.0826 51.3966 9.92924 50.0062 9.12688C48.6157 8.32452 46.9677 7.92334 45.1652 7.92334C43.9292 7.92334 42.7962 8.12393 41.7147 8.57526C40.6847 9.02658 39.7062 9.62835 38.7793 10.4809C37.8523 11.3835 37.1313 12.3865 36.6678 13.4396C36.2043 14.5428 35.9468 15.6962 35.9468 16.9499C35.9468 18.1534 36.1528 19.2567 36.5133 20.3098C36.9253 21.3629 37.4918 22.3157 38.3158 23.118C39.2427 24.121 40.2727 24.8732 41.4057 25.3245C42.5387 25.826 43.7747 26.0767 45.1137 26.0767C46.8647 26.0767 48.4612 25.6756 49.8517 24.9233C51.1906 24.121 52.2721 23.0679 52.9931 21.6638L53.4051 20.9115H52.5296H50.0576V20.8112Z" fill="#25287F"/>
<path d="M71.533 13.2891C71.0695 12.1858 70.3485 11.233 69.473 10.3805C68.546 9.52801 67.5675 8.87609 66.486 8.47491C65.4045 8.02359 64.22 7.823 62.9325 7.823C61.6965 7.823 60.5121 8.02359 59.4821 8.47491C58.4521 8.92624 57.4736 9.52801 56.5466 10.3805C55.6196 11.233 54.8986 12.236 54.4351 13.3392C53.9716 14.4425 53.7141 15.5959 53.7141 16.8495C53.7141 18.0029 53.9201 19.1563 54.3321 20.2094C54.7441 21.2124 55.3106 22.1652 56.0831 23.0177C57.0101 24.0206 58.0401 24.7728 59.1731 25.2242C60.3061 25.7256 61.5935 25.9764 62.9325 25.9764C64.2715 25.9764 65.559 25.7257 66.692 25.2743C67.825 24.823 68.9065 24.0708 69.8335 23.118C70.6575 22.3156 71.224 21.3628 71.636 20.3097C72.048 19.2566 72.254 18.1032 72.254 16.8495C72.2025 15.5457 71.9965 14.3923 71.533 13.2891ZM62.9325 10.882C63.808 10.882 64.632 11.0324 65.4045 11.3333C66.1255 11.6342 66.8465 12.1357 67.4645 12.8377C68.031 13.3894 68.443 13.9911 68.752 14.6932C69.0095 15.3451 69.164 16.0472 69.164 16.7493C69.164 18.5044 68.5975 19.9085 67.3615 21.1121C66.177 22.3156 64.735 22.9174 62.9325 22.9174C62.16 22.9174 61.3875 22.7669 60.615 22.4159C59.8426 22.115 59.1731 21.6637 58.5551 21.1121C58.0401 20.6106 57.6281 19.9587 57.3191 19.2065C57.0616 18.4543 56.9071 17.6519 56.9071 16.8495C56.9071 16.0973 57.0616 15.295 57.3706 14.5929C57.6796 13.8407 58.1431 13.1888 58.7611 12.587C59.3276 12.0354 59.9456 11.6342 60.7181 11.3333C61.336 11.0324 62.1085 10.882 62.9325 10.882Z" fill="#25287F"/>
<path d="M80.8545 15.2449C80.803 15.2449 79.6185 14.8939 79.6185 14.8939C78.8975 14.6933 78.3825 14.5429 78.0735 14.4927C77.6615 14.3423 77.301 14.1417 77.0435 13.9411C76.889 13.8408 76.786 13.6904 76.7345 13.4898C76.683 13.3393 76.6315 13.0886 76.6315 12.888C76.6315 12.2361 76.8375 11.7346 77.2495 11.3334C77.6615 10.9322 78.228 10.7317 79.0005 10.7317C79.6185 10.7317 80.1335 10.8821 80.597 11.2331C81.009 11.5842 81.2665 11.9853 81.2665 12.4868L81.318 12.9381H81.833H83.8415H84.4594L84.4079 12.3865C84.3049 10.9322 83.7899 9.829 82.863 9.02664C81.8845 8.17413 80.597 7.77295 79.052 7.77295C77.3525 7.77295 75.9105 8.22428 74.8805 9.17708C73.8505 10.1299 73.3355 11.3836 73.3355 12.9381C73.3355 13.4396 73.4385 13.9411 73.593 14.4426C73.7475 14.944 74.0565 15.3954 74.417 15.7464C74.932 16.2479 75.55 16.6992 76.3225 17.0502C76.9405 17.3511 77.713 17.6019 78.537 17.8024C79.979 18.1535 80.597 18.5045 80.906 18.7051C81.421 19.1063 81.6785 19.6579 81.6785 20.4603C81.6785 21.2125 81.421 21.7641 80.8545 22.2656C80.288 22.7671 79.6185 23.0178 78.6915 23.0178C77.8675 23.0178 77.2495 22.7671 76.683 22.3157C76.168 21.8644 75.9105 21.3128 75.859 20.6107V20.1092H75.2925H73.284H72.7175V20.6107C72.7175 22.1653 73.284 23.4691 74.3655 24.4219C75.447 25.3747 76.9405 25.8762 78.6915 25.8762C80.5455 25.8762 82.039 25.3747 83.172 24.3216C84.3049 23.2685 84.8714 21.8644 84.8714 20.2095C84.8714 19.006 84.5109 17.9529 83.7899 17.1004C83.172 16.3482 82.1935 15.6963 80.8545 15.2449Z" fill="#25287F"/>
<path d="M169.537 24.7228L162.533 8.87618L162.378 8.52515H162.018H159.752H159.391L159.237 8.87618L152.13 24.7228L151.666 25.7257H152.593H154.859H155.22L155.374 25.3747L157.28 21.062H164.284L166.138 25.3747L166.292 25.7257H166.653H169.022H169.949L169.537 24.7228ZM160.885 12.8378L162.893 17.7523H158.773L160.885 12.8378Z" fill="#25287F"/>
<path d="M103.669 8.32446H100.476H100.064L99.9091 8.67549L95.3257 20.6607L90.7422 8.67549L90.6392 8.32446H90.1757H86.9312H86.3132V8.82594V25.2242V25.7758H86.9312H88.8367H89.4547V25.2242V13.2891L94.0382 25.4248L94.1927 25.7758H94.6047H95.9951H96.4586L96.5616 25.4248L101.248 13.1888V25.2242V25.7758H101.866H103.669H104.287V25.2242V8.82594V8.32446H103.669Z" fill="#25287F"/>
<path d="M130.912 20.8112H130.654L130.5 21.0118C130.036 21.6136 129.418 22.0649 128.646 22.416C127.873 22.767 126.998 22.9676 126.071 22.9676C125.298 22.9676 124.526 22.8171 123.753 22.4661C122.981 22.1652 122.311 21.7139 121.745 21.1623C121.178 20.6608 120.766 20.0089 120.457 19.2567C120.2 18.5045 120.045 17.7021 120.045 16.8997C120.045 16.1475 120.2 15.3953 120.509 14.6431C120.818 13.8909 121.281 13.239 121.848 12.6873C122.414 12.1357 123.032 11.6844 123.753 11.4337C124.474 11.1328 125.247 10.9823 126.019 10.9823C126.946 10.9823 127.873 11.1829 128.646 11.534C129.418 11.885 130.088 12.3865 130.654 13.0885L130.809 13.2891H131.066H133.538H134.362L134.002 12.5369C133.332 11.0826 132.251 9.92924 130.86 9.12688C129.47 8.32452 127.822 7.92334 126.019 7.92334C124.783 7.92334 123.65 8.12393 122.569 8.57526C121.539 9.02658 120.56 9.62835 119.633 10.4809C118.706 11.3835 117.985 12.3865 117.522 13.4396C117.213 14.1918 117.007 14.9941 116.904 15.7965H116.595H108.973V11.2832H115.719H116.183V10.7817V8.87614V8.42481H115.719H106.347H105.832V8.87614V25.4248V25.8761H106.347H115.719H116.183V25.4248V23.4691V22.9676H115.719H108.973V18.4543H116.595H116.904C117.007 19.0561 117.161 19.6579 117.367 20.2095C117.779 21.2626 118.346 22.2154 119.17 23.0177C120.097 24.0207 121.127 24.7729 122.26 25.2242C123.393 25.7257 124.629 25.9764 125.968 25.9764C127.719 25.9764 129.315 25.5753 130.706 24.823C132.045 24.0207 133.126 22.9676 133.847 21.5635L134.259 20.8112H133.384H130.912Z" fill="#25287F"/>
<path d="M148.988 20.8112H148.731L148.576 21.0118C148.113 21.6136 147.495 22.0649 146.722 22.416C145.95 22.767 145.074 22.9676 144.147 22.9676C143.375 22.9676 142.602 22.8171 141.83 22.4661C141.057 22.1652 140.388 21.7139 139.821 21.1623C139.255 20.6608 138.843 20.0089 138.534 19.2567C138.276 18.5045 138.122 17.7021 138.122 16.8997C138.122 16.1475 138.276 15.3953 138.585 14.6431C138.894 13.8909 139.358 13.239 139.924 12.6874C140.491 12.1357 141.109 11.6844 141.83 11.4337C142.551 11.1328 143.323 10.9823 144.096 10.9823C145.023 10.9823 145.95 11.1829 146.722 11.534C147.495 11.885 148.164 12.3865 148.731 13.0885L148.885 13.2891H149.143H151.615H152.439L152.078 12.5369C151.409 11.0826 150.327 9.92924 148.937 9.12688C147.546 8.32452 145.898 7.92334 144.096 7.92334C142.86 7.92334 141.727 8.12393 140.645 8.57526C139.615 9.02658 138.637 9.62835 137.71 10.4809C136.783 11.3835 136.062 12.3865 135.598 13.4396C135.135 14.5428 134.877 15.6962 134.877 16.9499C134.877 18.1534 135.083 19.2567 135.444 20.3098C135.856 21.3629 136.422 22.3157 137.246 23.118C138.173 24.121 139.203 24.8732 140.336 25.3245C141.469 25.826 142.705 26.0767 144.044 26.0767C145.795 26.0767 147.392 25.6756 148.782 24.9233C150.121 24.121 151.203 23.0679 151.924 21.6638L152.336 20.9115H151.46H148.988V20.8112Z" fill="#25287F"/>
</svg>
