<svg width="157" height="32" viewBox="0 0 157 32" fill="none" xmlns="http://www.w3.org/2000/svg">
<path d="M16.3611 13.9705C15.0294 14.4425 14.1733 13.4041 13.5074 12.4602C12.794 11.3274 12.3659 10.3835 12.033 9.29793C11.7001 8.21239 11.4147 7.03245 11.3196 5.85251C11.2245 4.62537 11.2245 3.35103 11.3672 2.0767C11.4147 1.36873 11.4623 0.660767 11.605 0C12.1281 0.471976 12.6037 0.943953 13.0794 1.46313C13.9355 2.40708 14.744 3.35103 15.4099 4.43658C16.0757 5.47493 16.5513 6.56047 16.9794 7.64602C17.3599 8.73156 17.6452 9.72271 17.7404 11.0442C17.7879 12.177 17.7404 13.5457 16.3611 13.9705Z" fill="#68A844"/>
<path d="M18.6917 14.8201C17.788 13.7346 18.549 12.5546 19.2624 11.6579C20.0709 10.6195 20.8795 9.91155 21.8307 9.25078C22.7344 8.59001 23.7807 7.97644 24.9222 7.50447C26.0637 7.03249 27.3003 6.65491 28.5369 6.37172C29.2027 6.23013 29.9161 6.08854 30.582 5.99414C30.2966 6.60771 29.9637 7.22128 29.6308 7.83485C29.0125 8.92039 28.2991 10.0059 27.5381 10.9499C26.7295 11.8938 25.8734 12.6962 24.9698 13.4042C24.0661 14.1121 23.1624 14.6785 21.9258 15.1505C20.8319 15.5753 19.5002 15.9528 18.6917 14.8201Z" fill="#68A844"/>
<path d="M18.5965 17.227C19.3575 16.0471 20.7367 16.3775 21.7831 16.8023C23.0197 17.2742 23.9709 17.7934 24.8746 18.5014C25.7782 19.1621 26.7295 19.9645 27.538 20.8613C28.3466 21.8052 29.1075 22.8436 29.7258 23.9291C30.1063 24.5427 30.4393 25.109 30.7246 25.7698C30.0112 25.6754 29.3453 25.581 28.6319 25.4394C27.3953 25.2034 26.1587 24.8731 24.9697 24.4011C23.8282 23.9291 22.7819 23.3627 21.8307 22.702C20.8794 22.0884 20.0709 21.3804 19.2148 20.3893C18.5014 19.4925 17.7404 18.3598 18.5965 17.227Z" fill="#68A844"/>
<path d="M16.266 17.888C17.6453 18.2655 17.7404 19.6343 17.6929 20.767C17.6453 22.0885 17.4075 23.1269 17.027 24.2124C16.6465 25.298 16.1709 26.4307 15.5526 27.4691C14.9343 28.5546 14.1258 29.5458 13.3172 30.4897C12.8416 31.0089 12.366 31.5281 11.8904 32C11.7477 31.3393 11.6526 30.6313 11.5574 29.9234C11.4148 28.649 11.3196 27.4219 11.4148 26.1475C11.5099 24.9204 11.7477 23.7405 12.0331 22.6549C12.366 21.5694 12.7465 20.5782 13.4599 19.4455C14.0782 18.5015 14.8867 17.4632 16.266 17.888Z" fill="#68A844"/>
<path d="M14.8867 15.9056C14.9343 17.3216 13.6501 17.7936 12.5562 18.1239C11.272 18.5015 10.2257 18.5959 9.03666 18.5487C7.89518 18.5487 6.70615 18.4543 5.46955 18.1711C4.28052 17.8879 3.09149 17.4632 1.90245 16.9912C1.23659 16.708 0.618297 16.4248 0 16.0944C0.618297 15.7641 1.2366 15.4337 1.85489 15.1505C2.99636 14.6313 4.1854 14.1593 5.42199 13.8761C6.61103 13.593 7.80006 13.4514 8.94153 13.4042C10.083 13.357 11.1769 13.4514 12.4611 13.7346C13.6025 14.0177 14.8867 14.4897 14.8867 15.9056Z" fill="#68A844"/>
<path d="M17.2172 16.7551C17.6928 16.6135 17.8831 16.1887 17.7404 15.7168C17.5977 15.2448 17.1696 15.056 16.694 15.1976C16.2184 15.3392 16.0282 15.764 16.1709 16.2359C16.3135 16.6607 16.7416 16.8967 17.2172 16.7551Z" fill="#68A844"/>
<path d="M16.3611 13.9705C16.3611 12.6017 16.2184 11.2802 15.7904 9.95866C15.3623 8.54273 14.6489 7.2684 13.7452 6.04126C13.7452 7.50439 13.9355 8.96751 14.4111 10.3834C14.8867 11.6578 15.5526 12.8849 16.3611 13.9705Z" fill="#A1C07A"/>
<path d="M18.6917 14.8202C20.0234 14.4426 21.26 13.829 22.3539 13.0739C23.5429 12.2243 24.5893 11.1388 25.4454 9.91162C24.0185 10.3364 22.6868 10.9972 21.4978 11.8939C20.4514 12.6963 19.5002 13.6874 18.6917 14.8202Z" fill="#A1C07A"/>
<path d="M18.5964 17.2271C19.405 18.3598 20.3562 19.3037 21.4026 20.1061C22.5916 20.9557 23.9233 21.6164 25.3977 22.0884C24.5416 20.8613 23.4953 19.8229 22.3062 18.9734C21.1647 18.2182 19.9282 17.6518 18.5964 17.2271Z" fill="#A1C07A"/>
<path d="M16.2659 17.8879C15.4574 18.9735 14.7915 20.1534 14.3635 21.4278C13.8879 22.7965 13.6976 24.3068 13.6976 25.7699C14.6013 24.59 15.2672 23.2685 15.6952 21.8997C16.0757 20.6254 16.2659 19.2567 16.2659 17.8879Z" fill="#A1C07A"/>
<path d="M14.8867 15.9057C13.6025 15.4809 12.2232 15.1978 10.8915 15.1978C9.41711 15.1978 7.94271 15.4337 6.51587 15.9057C7.94271 16.3777 9.41711 16.6137 10.8915 16.6137C12.2232 16.6137 13.5549 16.3305 14.8867 15.9057Z" fill="#A1C07A"/>
<path d="M46.2297 19.5871H45.9919L45.8492 19.7759C45.4211 20.3422 44.8504 20.767 44.137 21.0974C43.4236 21.4278 42.615 21.6166 41.7589 21.6166C41.0455 21.6166 40.3321 21.475 39.6187 21.1446C38.9052 20.8614 38.2869 20.4366 37.7638 19.9175C37.2406 19.4455 36.8601 18.8319 36.5747 18.1239C36.3369 17.416 36.1942 16.6608 36.1942 15.9057C36.1942 15.1977 36.3369 14.4897 36.6223 13.7818C36.9077 13.0738 37.3357 12.4602 37.8589 11.9411C38.3821 11.4219 38.9528 10.9971 39.6187 10.7611C40.2845 10.4779 40.9979 10.3363 41.7114 10.3363C42.5675 10.3363 43.4236 10.5251 44.137 10.8555C44.8504 11.1859 45.4687 11.6579 45.9919 12.3186L46.1346 12.5074H46.3724H48.6553H49.4163L49.0834 11.7995C48.4651 10.4307 47.4663 9.34518 46.1821 8.59002C44.898 7.83486 43.376 7.45728 41.7114 7.45728C40.5699 7.45728 39.5235 7.64607 38.5247 8.07084C37.5735 8.49562 36.6699 9.062 35.8137 9.86436C34.9576 10.7139 34.2918 11.6579 33.8637 12.649C33.4357 13.6874 33.1979 14.7729 33.1979 15.9529C33.1979 17.0856 33.3881 18.1239 33.721 19.1151C34.1015 20.1062 34.6247 21.003 35.3857 21.7582C36.2418 22.7021 37.193 23.4101 38.2394 23.8349C39.2857 24.3068 40.4272 24.5428 41.6638 24.5428C43.2809 24.5428 44.7553 24.1652 46.0394 23.4573C47.276 22.7021 48.2748 21.711 48.9407 20.3894L49.3212 19.6815H48.5126H46.2297V19.5871Z" fill="white"/>
<path d="M66.0628 12.5073C65.6347 11.469 64.9689 10.5722 64.1603 9.76987C63.3042 8.96751 62.4006 8.35394 61.4018 7.97636C60.403 7.55158 59.3091 7.36279 58.12 7.36279C56.9786 7.36279 55.8847 7.55158 54.9334 7.97636C53.9822 8.40114 53.0785 8.96751 52.2224 9.76987C51.3663 10.5722 50.7005 11.5162 50.2724 12.5545C49.8444 13.5929 49.6066 14.6784 49.6066 15.8584C49.6066 16.9439 49.7968 18.0295 50.1773 19.0206C50.5578 19.9646 51.081 20.8613 51.7944 21.6637C52.6505 22.6076 53.6017 23.3156 54.6481 23.7404C55.6944 24.2123 56.8834 24.4483 58.12 24.4483C59.3566 24.4483 60.5457 24.2123 61.592 23.7876C62.6384 23.3628 63.6372 22.6548 64.4933 21.7581C65.2542 21.0029 65.7774 20.1062 66.1579 19.115C66.5384 18.1239 66.7286 17.0383 66.7286 15.8584C66.6811 14.6312 66.4908 13.5457 66.0628 12.5073ZM58.12 10.2418C58.9286 10.2418 59.6896 10.3834 60.403 10.6666C61.0688 10.9498 61.7347 11.4218 62.3054 12.0826C62.8286 12.6017 63.2091 13.1681 63.4945 13.8289C63.7323 14.4424 63.875 15.1032 63.875 15.764C63.875 17.4159 63.3518 18.7374 62.2103 19.8702C61.1164 21.0029 59.7847 21.5693 58.12 21.5693C57.4066 21.5693 56.6932 21.4277 55.9798 21.0973C55.2664 20.8141 54.6481 20.3893 54.0773 19.8702C53.6017 19.3982 53.2212 18.7846 52.9359 18.0767C52.6981 17.3687 52.5554 16.6135 52.5554 15.8584C52.5554 15.1504 52.6981 14.3952 52.9834 13.7345C53.2688 13.0265 53.6968 12.4129 54.2676 11.8466C54.7908 11.3274 55.3615 10.9498 56.0749 10.6666C56.6456 10.3834 57.3591 10.2418 58.12 10.2418Z" fill="white"/>
<path d="M74.6714 14.3481C74.6238 14.3481 73.5299 14.0177 73.5299 14.0177C72.864 13.8289 72.3884 13.6874 72.1031 13.6402C71.7226 13.4986 71.3896 13.3098 71.1518 13.121C71.0092 13.0266 70.914 12.885 70.8665 12.6962C70.8189 12.5546 70.7713 12.3186 70.7713 12.1298C70.7713 11.5163 70.9616 11.0443 71.3421 10.6667C71.7226 10.2891 72.2457 10.1003 72.9592 10.1003C73.5299 10.1003 74.0055 10.2419 74.4336 10.5723C74.8141 10.9027 75.0519 11.2803 75.0519 11.7523L75.0994 12.177H75.575H77.4299H78.0007L77.9531 11.6579C77.858 10.2891 77.3824 9.25078 76.5263 8.49562C75.6226 7.69326 74.4336 7.31567 73.0067 7.31567C71.4372 7.31567 70.1055 7.74045 69.1543 8.63721C68.203 9.53396 67.7274 10.7139 67.7274 12.177C67.7274 12.649 67.8225 13.121 67.9652 13.593C68.1079 14.0649 68.3933 14.4897 68.7262 14.8201C69.2018 15.2921 69.7726 15.7169 70.486 16.0472C71.0567 16.3304 71.7701 16.5664 72.5311 16.7552C73.8628 17.0856 74.4336 17.416 74.7189 17.6048C75.1946 17.9823 75.4324 18.5015 75.4324 19.2567C75.4324 19.9646 75.1946 20.4838 74.6714 20.9558C74.1482 21.4278 73.5299 21.6638 72.6738 21.6638C71.9128 21.6638 71.3421 21.4278 70.8189 21.003C70.3433 20.5782 70.1055 20.059 70.0579 19.3983V18.9263H69.5347H67.6799H67.1567V19.3983C67.1567 20.8614 67.6799 22.0885 68.6786 22.9853C69.6774 23.882 71.0567 24.354 72.6738 24.354C74.386 24.354 75.7653 23.882 76.8116 22.8909C77.858 21.8997 78.3812 20.5782 78.3812 19.0207C78.3812 17.8879 78.0482 16.8968 77.3824 16.0944C76.8116 15.3865 75.908 14.7729 74.6714 14.3481Z" fill="white"/>
<path d="M156.572 23.2685L150.104 8.35407L149.961 8.02368H149.628H147.535H147.202L147.06 8.35407L140.496 23.2685L140.068 24.2125H140.924H143.017H143.35L143.493 23.8821L145.252 19.8231H151.721L153.433 23.8821L153.576 24.2125H153.909H156.096H156.953L156.572 23.2685ZM148.582 12.0827L150.437 16.708H146.632L148.582 12.0827Z" fill="white"/>
<path d="M95.7411 7.83496H92.7923H92.4118L92.2691 8.16534L88.0361 19.4456L83.8032 8.16534L83.708 7.83496H83.28H80.2836H79.7129V8.30694V23.7406V24.2597H80.2836H82.0434H82.6141V23.7406V12.5075L86.8471 23.9294L86.9898 24.2597H87.3703H88.6544H89.0825L89.1776 23.9294L93.5057 12.4131V23.7406V24.2597H94.0764H95.7411H96.3118V23.7406V8.30694V7.83496H95.7411Z" fill="white"/>
<path d="M120.901 19.5871H120.663L120.521 19.7759C120.092 20.3422 119.522 20.767 118.808 21.0974C118.095 21.4278 117.286 21.6166 116.43 21.6166C115.717 21.6166 115.003 21.475 114.29 21.1446C113.577 20.8614 112.958 20.4366 112.435 19.9175C111.912 19.4455 111.531 18.8319 111.246 18.1239C111.008 17.416 110.866 16.6608 110.866 15.9057C110.866 15.1977 111.008 14.4897 111.294 13.7818C111.579 13.0738 112.007 12.4602 112.53 11.9411C113.053 11.4219 113.624 10.9971 114.29 10.7611C114.956 10.4779 115.669 10.3363 116.383 10.3363C117.239 10.3363 118.095 10.5251 118.808 10.8555C119.522 11.1859 120.14 11.6579 120.663 12.3186L120.806 12.5074H121.044H123.327H124.088L123.755 11.7995C123.136 10.4307 122.138 9.34518 120.853 8.59002C119.569 7.83486 118.047 7.45728 116.383 7.45728C115.241 7.45728 114.195 7.64607 113.196 8.07084C112.245 8.49562 111.341 9.06199 110.485 9.86435C109.629 10.7139 108.963 11.6579 108.535 12.649C108.25 13.357 108.059 14.1121 107.964 14.8673H107.679H100.64V10.6195H106.87H107.298V10.1475V8.35403V7.92925H106.87H98.2143H97.7386V8.35403V23.9293V24.354H98.2143H106.87H107.298V23.9293V22.0885V21.6166H106.87H100.64V17.3688H107.679H107.964C108.059 17.9352 108.202 18.5015 108.392 19.0207C108.773 20.0118 109.296 20.9086 110.057 21.6638C110.913 22.6077 111.864 23.3157 112.911 23.7405C113.957 24.2124 115.099 24.4484 116.335 24.4484C117.952 24.4484 119.427 24.0708 120.711 23.3629C121.947 22.6077 122.946 21.6166 123.612 20.295L123.992 19.5871H123.184H120.901Z" fill="white"/>
<path d="M137.595 19.5871H137.357L137.215 19.7759C136.786 20.3422 136.216 20.767 135.502 21.0974C134.789 21.4278 133.98 21.6166 133.124 21.6166C132.411 21.6166 131.697 21.475 130.984 21.1446C130.271 20.8614 129.652 20.4366 129.129 19.9175C128.606 19.4455 128.225 18.8319 127.94 18.1239C127.702 17.416 127.56 16.6608 127.56 15.9057C127.56 15.1977 127.702 14.4897 127.988 13.7818C128.273 13.0738 128.701 12.4602 129.224 11.9411C129.747 11.4219 130.318 10.9971 130.984 10.7611C131.65 10.4779 132.363 10.3363 133.077 10.3363C133.933 10.3363 134.789 10.5251 135.502 10.8555C136.216 11.1859 136.834 11.6579 137.357 12.3186L137.5 12.5074H137.738H140.021H140.782L140.449 11.7995C139.83 10.4307 138.832 9.34518 137.547 8.59002C136.263 7.83486 134.741 7.45728 133.077 7.45728C131.935 7.45728 130.889 7.64607 129.89 8.07084C128.939 8.49562 128.035 9.062 127.179 9.86436C126.323 10.7139 125.657 11.6579 125.229 12.649C124.801 13.6874 124.563 14.7729 124.563 15.9529C124.563 17.0856 124.753 18.1239 125.086 19.1151C125.467 20.1062 125.99 21.003 126.751 21.7582C127.607 22.7021 128.558 23.4101 129.605 23.8349C130.651 24.3068 131.793 24.5428 133.029 24.5428C134.646 24.5428 136.121 24.1652 137.405 23.4573C138.641 22.7021 139.64 21.711 140.306 20.3894L140.687 19.6815H139.878H137.595V19.5871Z" fill="white"/>
</svg>
