<svg width="16" height="16" viewBox="0 0 16 16" fill="none" xmlns="http://www.w3.org/2000/svg">
<path d="M3.33333 3.33334H4.66667V5.33334H11.3333V3.33334H12.6667V6.66667H14V3.33334C14 2.6 13.4 2.00001 12.6667 2.00001H9.88C9.6 1.22667 8.86667 0.666672 8 0.666672C7.13333 0.666672 6.4 1.22667 6.12 2.00001H3.33333C2.6 2.00001 2 2.6 2 3.33334V12.6667C2 13.4 2.6 14 3.33333 14H6.66667V12.6667H3.33333V3.33334ZM8 2.00001C8.36667 2.00001 8.66667 2.3 8.66667 2.66667C8.66667 3.03334 8.36667 3.33334 8 3.33334C7.63333 3.33334 7.33333 3.03334 7.33333 2.66667C7.33333 2.3 7.63333 2.00001 8 2.00001Z" fill="#A6ABC8"/>
<path d="M13.5333 12.6C13.8 12.1333 14 11.6 14 11C14 9.33333 12.6667 8 11 8C9.33333 8 8 9.33333 8 11C8 12.6667 9.33333 14 11 14C11.6 14 12.1333 13.8 12.6 13.5333L14.4 15.3333L15.3333 14.4L13.5333 12.6ZM11 12.6667C10.0667 12.6667 9.33333 11.9333 9.33333 11C9.33333 10.0667 10.0667 9.33333 11 9.33333C11.9333 9.33333 12.6667 10.0667 12.6667 11C12.6667 11.9333 11.9333 12.6667 11 12.6667Z" fill="#A6ABC8"/>
</svg>
