<svg width="114" height="22" viewBox="0 0 114 22" fill="none" xmlns="http://www.w3.org/2000/svg">
<path d="M17.4167 2.75H4.58333C3.575 2.75 2.75 3.575 2.75 4.58333V17.4167C2.75 18.425 3.575 19.25 4.58333 19.25H17.4167C18.425 19.25 19.25 18.425 19.25 17.4167V4.58333C19.25 3.575 18.425 2.75 17.4167 2.75ZM12.8333 15.5833H11V8.25H9.16667V6.41667H12.8333V15.5833Z" fill="#25287F"/>
<path d="M40.4167 2.75H27.5833C26.575 2.75 25.75 3.575 25.75 4.58333V17.4167C25.75 18.425 26.575 19.25 27.5833 19.25H40.4167C41.425 19.25 42.25 18.425 42.25 17.4167V4.58333C42.25 3.575 41.425 2.75 40.4167 2.75ZM36.75 10.0833C36.75 11.1008 35.925 11.9167 34.9167 11.9167H33.0833V13.75H36.75V15.5833H31.25V11.9167C31.25 10.8992 32.075 10.0833 33.0833 10.0833H34.9167V8.25H31.25V6.41667H34.9167C35.925 6.41667 36.75 7.2325 36.75 8.25V10.0833Z" fill="#25287F"/>
<g clip-path="url(#clip0_32_29)">
<path d="M63.4258 2.75H50.5925C49.5842 2.75 48.7592 3.575 48.7592 4.58333V17.4167C48.7592 18.425 49.5842 19.25 50.5925 19.25H63.4258C64.4342 19.25 65.2592 18.425 65.2592 17.4167V4.58333C65.2592 3.575 64.4342 2.75 63.4258 2.75ZM59.7592 9.625C59.7592 10.3858 59.145 11 58.3842 11C59.145 11 59.7592 11.6142 59.7592 12.375V13.75C59.7592 14.7675 58.9342 15.5833 57.9258 15.5833H54.2592V13.75H57.9258V11.9167H56.0925V10.0833H57.9258V8.25H54.2592V6.41667H57.9258C58.9342 6.41667 59.7592 7.2325 59.7592 8.25V9.625Z" fill="#25287F"/>
</g>
<path d="M86.4167 2.75H73.5833C72.575 2.75 71.75 3.575 71.75 4.58333V17.4167C71.75 18.425 72.575 19.25 73.5833 19.25H86.4167C87.425 19.25 88.25 18.425 88.25 17.4167V4.58333C88.25 3.575 87.425 2.75 86.4167 2.75ZM82.75 15.5833H80.9167V11.9167H77.25V6.41667H79.0833V10.0833H80.9167V6.41667H82.75V15.5833Z" fill="#25287F"/>
<path d="M109.417 2.75H96.5833C95.575 2.75 94.75 3.575 94.75 4.58333V17.4167C94.75 18.425 95.575 19.25 96.5833 19.25H109.417C110.425 19.25 111.25 18.425 111.25 17.4167V4.58333C111.25 3.575 110.425 2.75 109.417 2.75ZM105.75 8.25H102.083V10.0833H103.917C104.925 10.0833 105.75 10.8992 105.75 11.9167V13.75C105.75 14.7675 104.925 15.5833 103.917 15.5833H100.25V13.75H103.917V11.9167H100.25V6.41667H105.75V8.25Z" fill="#25287F"/>
<defs>
<clipPath id="clip0_32_29">
<rect width="22" height="22" fill="white" transform="translate(46)"/>
</clipPath>
</defs>
</svg>
