<svg width="26" height="26" viewBox="0 0 26 26" fill="none" xmlns="http://www.w3.org/2000/svg">
<path d="M20.5833 3.25H5.41667C4.21417 3.25 3.25 4.225 3.25 5.41667V20.5833C3.25 21.775 4.21417 22.75 5.41667 22.75H20.5833C21.775 22.75 22.75 21.775 22.75 20.5833V5.41667C22.75 4.225 21.775 3.25 20.5833 3.25ZM18.4167 14.0833H14.0833V18.4167H11.9167V14.0833H7.58333V11.9167H11.9167V7.58333H14.0833V11.9167H18.4167V14.0833Z" fill="#25287F"/>
<rect x="2.88889" y="2.88892" width="20.2222" height="20.2222" rx="2" fill="#25287F"/>
<path d="M13.0439 15.7878C12.2928 15.7878 11.7584 15.5711 11.7584 14.9933C11.7584 14.4011 12.2928 14.1844 13.0439 14.1844C13.7806 14.1844 14.3295 14.4011 14.3295 14.9933C14.3295 15.5711 13.7806 15.7878 13.0439 15.7878ZM13.0439 12.2489C10.935 12.2489 9.37503 13.3755 9.37503 14.9933C9.37503 16.5967 10.935 17.7233 13.0439 17.7233C15.1528 17.7233 16.7128 16.5967 16.7128 14.9933C16.7128 13.3755 15.1528 12.2489 13.0439 12.2489ZM14.2139 9.80776V8.21887H11.8739V9.80776H8.5517V11.6855H17.4639V9.80776H14.2139Z" fill="white"/>
</svg>
