<svg width="18" height="18" viewBox="0 0 18 18" fill="none" xmlns="http://www.w3.org/2000/svg">
<path d="M14.25 2.25H3.75C2.9175 2.25 2.25 2.925 2.25 3.75V14.25C2.25 15.075 2.9175 15.75 3.75 15.75H14.25C15.075 15.75 15.75 15.075 15.75 14.25V3.75C15.75 2.925 15.075 2.25 14.25 2.25ZM12.75 9.75H9.75V12.75H8.25V9.75H5.25V8.25H8.25V5.25H9.75V8.25H12.75V9.75Z" fill="#595959"/>
<rect x="2" y="2" width="14" height="14" rx="2" fill="#595959"/>
<path d="M9.03041 10.9299C8.51041 10.9299 8.14041 10.7799 8.14041 10.3799C8.14041 9.96994 8.51041 9.81994 9.03041 9.81994C9.54041 9.81994 9.92041 9.96994 9.92041 10.3799C9.92041 10.7799 9.54041 10.9299 9.03041 10.9299ZM9.03041 8.47994C7.57041 8.47994 6.49041 9.25994 6.49041 10.3799C6.49041 11.4899 7.57041 12.2699 9.03041 12.2699C10.4904 12.2699 11.5704 11.4899 11.5704 10.3799C11.5704 9.25994 10.4904 8.47994 9.03041 8.47994ZM9.84041 6.78994V5.68994H8.22041V6.78994H5.92041V8.08994H12.0904V6.78994H9.84041Z" fill="white"/>
</svg>
