<svg width="32" height="32" viewBox="0 0 32 32" fill="none" xmlns="http://www.w3.org/2000/svg">
<circle cx="16" cy="16" r="16" fill="white"/>
<path d="M15.9863 14.7318C15.154 15.0268 14.6189 14.3778 14.2027 13.7878C13.7569 13.0799 13.4893 12.4899 13.2813 11.8114C13.0732 11.133 12.8948 10.3955 12.8354 9.65805C12.7759 8.89109 12.7759 8.09463 12.8651 7.29818C12.8948 6.8557 12.9245 6.41322 13.0137 6.00024C13.3407 6.29523 13.638 6.59021 13.9352 6.9147C14.4703 7.50466 14.9756 8.09463 15.3918 8.7731C15.8079 9.42206 16.1052 10.1005 16.3727 10.779C16.6105 11.4575 16.7889 12.0769 16.8483 12.9029C16.8781 13.6108 16.8483 14.4663 15.9863 14.7318Z" fill="#68A844"/>
<path d="M17.4426 15.2629C16.8778 14.5844 17.3534 13.8469 17.7993 13.2865C18.3047 12.6375 18.81 12.195 19.4045 11.7821C19.9693 11.3691 20.6233 10.9856 21.3367 10.6906C22.0501 10.3956 22.823 10.1596 23.5958 9.98265C24.012 9.89415 24.4579 9.80566 24.8741 9.74666C24.6957 10.1301 24.4876 10.5136 24.2795 10.8971C23.8931 11.5756 23.4472 12.254 22.9716 12.844C22.4663 13.434 21.9312 13.9354 21.3664 14.3779C20.8016 14.8204 20.2368 15.1744 19.464 15.4694C18.7803 15.7348 17.948 15.9708 17.4426 15.2629Z" fill="#68A844"/>
<path d="M17.3831 16.5095C17.8587 15.7721 18.7208 15.9786 19.3747 16.244C20.1476 16.539 20.7421 16.8635 21.3069 17.306C21.8717 17.719 22.4662 18.2204 22.9716 18.7809C23.4769 19.3709 23.9525 20.0198 24.3389 20.6983C24.5768 21.0818 24.7848 21.4358 24.9632 21.8487C24.5173 21.7897 24.1011 21.7308 23.6553 21.6423C22.8824 21.4948 22.1095 21.2883 21.3664 20.9933C20.653 20.6983 19.999 20.3443 19.4045 19.9313C18.81 19.5479 18.3046 19.1054 17.7696 18.4859C17.3237 17.9255 16.8481 17.2175 17.3831 16.5095Z" fill="#68A844"/>
<path d="M15.9272 17.18C16.7893 17.416 16.8487 18.2715 16.819 18.9794C16.7893 19.8054 16.6407 20.4544 16.4028 21.1328C16.165 21.8113 15.8678 22.5192 15.4813 23.1682C15.0949 23.8467 14.5896 24.4661 14.0842 25.0561C13.787 25.3806 13.4897 25.7051 13.1925 26.0001C13.1033 25.5871 13.0438 25.1446 12.9844 24.7021C12.8952 23.9057 12.8358 23.1387 12.8952 22.3423C12.9547 21.5753 13.1033 20.8378 13.2816 20.1594C13.4897 19.4809 13.7275 18.8614 14.1734 18.1535C14.5598 17.5635 15.0652 16.9145 15.9272 17.18Z" fill="#68A844"/>
<path d="M15.0649 15.9413C15.0946 16.8263 14.292 17.1213 13.6083 17.3277C12.8057 17.5637 12.1518 17.6227 11.4086 17.5932C10.6952 17.5932 9.95207 17.5342 9.1792 17.3572C8.43606 17.1803 7.69292 16.9148 6.94977 16.6198C6.53361 16.4428 6.14718 16.2658 5.76074 16.0593C6.14718 15.8528 6.53361 15.6463 6.92005 15.4693C7.63347 15.1449 8.37661 14.8499 9.14948 14.6729C9.89262 14.4959 10.6358 14.4074 11.3492 14.3779C12.0626 14.3484 12.7463 14.4074 13.5489 14.5844C14.2623 14.7614 15.0649 15.0564 15.0649 15.9413Z" fill="#68A844"/>
<path d="M16.5211 16.4722C16.8184 16.3837 16.9373 16.1182 16.8481 15.8232C16.7589 15.5283 16.4914 15.4103 16.1941 15.4988C15.8969 15.5872 15.778 15.8527 15.8672 16.1477C15.9563 16.4132 16.2239 16.5607 16.5211 16.4722Z" fill="#68A844"/>
<path d="M15.9866 14.7318C15.9866 13.8763 15.8975 13.0504 15.6299 12.2244C15.3624 11.3395 14.9165 10.543 14.3517 9.77607C14.3517 10.6905 14.4706 11.605 14.7679 12.4899C15.0651 13.2864 15.4813 14.0533 15.9866 14.7318Z" fill="#A1C07A"/>
<path d="M17.4427 15.263C18.275 15.027 19.0479 14.6435 19.7316 14.1715C20.4747 13.6405 21.1287 12.9621 21.6638 12.1951C20.772 12.4606 19.9397 12.8736 19.1965 13.4341C18.5426 13.9355 17.948 14.555 17.4427 15.263Z" fill="#A1C07A"/>
<path d="M17.6357 16.6252C18.141 17.3331 18.7355 17.9231 19.3895 18.4246C20.1326 18.9555 20.965 19.3685 21.8865 19.6635C21.3514 18.8965 20.6974 18.2476 19.9543 17.7166C19.2409 17.2446 18.468 16.8906 17.6357 16.6252Z" fill="#A1C07A"/>
<path d="M15.9271 17.1803C15.4218 17.8587 15.0056 18.5962 14.7381 19.3927C14.4408 20.2481 14.3219 21.1921 14.3219 22.1065C14.8867 21.369 15.3029 20.5431 15.5704 19.6876C15.8082 18.8912 15.9271 18.0357 15.9271 17.1803Z" fill="#A1C07A"/>
<path d="M15.0652 15.9413C14.2626 15.6758 13.4005 15.4988 12.5682 15.4988C11.6467 15.4988 10.7252 15.6463 9.83346 15.9413C10.7252 16.2363 11.6467 16.3838 12.5682 16.3838C13.4005 16.3838 14.2329 16.2068 15.0652 15.9413Z" fill="#A1C07A"/>
</svg>
